<?xml version="1.0" encoding="utf-8" standalone="no"?>
<!DOCTYPE svg PUBLIC "-//W3C//DTD SVG 1.1//EN"
  "http://www.w3.org/Graphics/SVG/1.1/DTD/svg11.dtd">
<svg xmlns:xlink="http://www.w3.org/1999/xlink" width="712.8pt" height="712.8pt" viewBox="0 0 712.8 712.8" xmlns="http://www.w3.org/2000/svg" version="1.1">
 <metadata>
  <rdf:RDF xmlns:dc="http://purl.org/dc/elements/1.1/" xmlns:cc="http://creativecommons.org/ns#" xmlns:rdf="http://www.w3.org/1999/02/22-rdf-syntax-ns#">
   <cc:Work>
    <dc:type rdf:resource="http://purl.org/dc/dcmitype/StillImage"/>
    <dc:date>2026-02-18T20:04:10.224060</dc:date>
    <dc:format>image/svg+xml</dc:format>
    <dc:creator>
     <cc:Agent>
      <dc:title>Matplotlib v3.10.8, https://matplotlib.org/</dc:title>
     </cc:Agent>
    </dc:creator>
   </cc:Work>
  </rdf:RDF>
 </metadata>
 <defs>
  <style type="text/css">*{stroke-linejoin: round; stroke-linecap: butt}</style>
 </defs>
 <g id="figure_1">
  <g id="patch_1">
   <path d="M 0 712.8 
L 712.8 712.8 
L 712.8 0 
L 0 0 
z
" style="fill: #0a0a1a"/>
  </g>
  <g id="axes_1">
   <g id="patch_2">
    <path d="M 356.4 682.32 
C 442.834994 682.32 525.741471 647.979013 586.860242 586.860242 
C 647.979013 525.741471 682.32 442.834994 682.32 356.4 
C 682.32 269.965006 647.979013 187.058529 586.860242 125.939758 
C 525.741471 64.820987 442.834994 30.48 356.4 30.48 
C 269.965006 30.48 187.058529 64.820987 125.939758 125.939758 
C 64.820987 187.058529 30.48 269.965006 30.48 356.4 
C 30.48 442.834994 64.820987 525.741471 125.939758 586.860242 
C 187.058529 647.979013 269.965006 682.32 356.4 682.32 
L 356.4 682.32 
z
" clip-path="url(#p50c204de03)" style="fill: none; opacity: 0.4; stroke: #4b79ff; stroke-width: 1.5; stroke-linejoin: miter"/>
   </g>
   <g id="patch_3">
    <path d="M 356.4 253.910362 
C 382.639195 253.910362 407.807232 243.48542 426.361145 224.931507 
C 444.915057 206.377595 455.34 181.209557 455.34 154.970362 
C 455.34 128.731168 444.915057 103.56313 426.361145 85.009217 
C 407.807232 66.455305 382.639195 56.030362 356.4 56.030362 
C 330.160805 56.030362 304.992768 66.455305 286.438855 85.009217 
C 267.884943 103.56313 257.46 128.731168 257.46 154.970362 
C 257.46 181.209557 267.884943 206.377595 286.438855 224.931507 
C 304.992768 243.48542 330.160805 253.910362 356.4 253.910362 
z
" clip-path="url(#p50c204de03)" style="fill: #ff6b6b; opacity: 0.15; stroke: #ff6b6b; stroke-width: 2; stroke-linejoin: miter"/>
   </g>
   <g id="patch_4">
    <path d="M 181.956817 556.054819 
C 208.196011 556.054819 233.364049 545.629876 251.917962 527.075964 
C 270.471874 508.522051 280.896817 483.354014 280.896817 457.114819 
C 280.896817 430.875624 270.471874 405.707586 251.917962 387.153674 
C 233.364049 368.599761 208.196011 358.174819 181.956817 358.174819 
C 155.717622 358.174819 130.549584 368.599761 111.995672 387.153674 
C 93.441759 405.707586 83.016817 430.875624 83.016817 457.114819 
C 83.016817 483.354014 93.441759 508.522051 111.995672 527.075964 
C 130.549584 545.629876 155.717622 556.054819 181.956817 556.054819 
z
" clip-path="url(#p50c204de03)" style="fill: #4b79ff; opacity: 0.15; stroke: #4b79ff; stroke-width: 2; stroke-linejoin: miter"/>
   </g>
   <g id="patch_5">
    <path d="M 530.843183 556.054819 
C 557.082378 556.054819 582.250416 545.629876 600.804328 527.075964 
C 619.358241 508.522051 629.783183 483.354014 629.783183 457.114819 
C 629.783183 430.875624 619.358241 405.707586 600.804328 387.153674 
C 582.250416 368.599761 557.082378 358.174819 530.843183 358.174819 
C 504.603989 358.174819 479.435951 368.599761 460.882038 387.153674 
C 442.328126 405.707586 431.903183 430.875624 431.903183 457.114819 
C 431.903183 483.354014 442.328126 508.522051 460.882038 527.075964 
C 479.435951 545.629876 504.603989 556.054819 530.843183 556.054819 
z
" clip-path="url(#p50c204de03)" style="fill: #6bff9e; opacity: 0.15; stroke: #6bff9e; stroke-width: 2; stroke-linejoin: miter"/>
   </g>
   <g id="line2d_1">
    <path d="M 365.712 356.4 
L 365.816937 354.967642 
L 365.702734 353.503002 
L 365.361955 352.039424 
L 364.792211 350.61177 
L 363.996447 349.255665 
L 362.983121 348.006682 
L 361.766259 346.899491 
L 360.549753 346.072943 
L 359.208682 345.400612 
L 357.762377 344.900949 
L 356.232862 344.590009 
L 354.644561 344.48107 
L 353.023956 344.584276 
L 351.399185 344.906327 
L 349.799599 345.450217 
L 348.255278 346.215032 
L 346.796514 347.195804 
L 345.453268 348.383445 
L 344.254614 349.764737 
L 343.228175 351.322412 
L 342.399558 353.035299 
L 341.791817 354.878551 
L 341.461924 356.540933 
L 341.319542 358.258869 
L 341.373047 360.011401 
L 341.628492 361.776389 
L 342.089452 363.530762 
L 342.756889 365.250793 
L 343.629049 366.912392 
L 344.701391 368.491414 
L 345.966553 369.963983 
L 347.414348 371.306813 
L 349.031808 372.49754 
L 350.803257 373.515055 
L 352.710427 374.339826 
L 354.732612 374.954211 
L 356.846858 375.342762 
L 359.028194 375.492503 
L 361.249892 375.39319 
L 363.483762 375.037542 
L 365.700481 374.421438 
L 367.869939 373.544085 
L 369.619703 372.615203 
L 371.297763 371.510092 
L 372.886582 370.233885 
L 374.368944 368.793442 
L 375.72812 367.197335 
L 376.948036 365.455818 
L 378.013444 363.580778 
L 378.91008 361.585678 
L 379.624829 359.485474 
L 380.145878 357.29652 
L 380.462859 355.036459 
L 380.566991 352.724094 
L 380.451204 350.379255 
L 380.110251 348.022636 
L 379.540813 345.675635 
L 378.741585 343.360178 
L 377.713341 341.098527 
L 376.458992 338.913087 
L 374.983615 336.826203 
L 373.294476 334.859955 
L 371.401016 333.03594 
L 369.314836 331.375067 
L 367.049645 329.897339 
L 364.621199 328.621641 
L 362.047209 327.565542 
L 359.347239 326.745086 
L 356.542577 326.174606 
L 353.656087 325.866539 
L 351.304248 325.816068 
L 348.928556 325.94452 
L 346.542451 326.255237 
L 344.159745 326.750562 
L 341.794544 327.431807 
L 339.461178 328.299218 
L 337.174112 329.351952 
L 334.947874 330.588053 
L 332.796965 332.004443 
L 330.735775 333.59691 
L 328.778495 335.360111 
L 326.939028 337.287573 
L 325.230903 339.371709 
L 323.667186 341.603835 
L 322.260391 343.974199 
L 321.022395 346.472008 
L 319.964353 349.085474 
L 319.096615 351.801858 
L 318.428649 354.607521 
L 317.968962 357.48799 
L 317.725032 360.428017 
L 317.703234 363.411654 
L 317.908785 366.422333 
L 318.34568 369.442946 
L 319.016646 372.455935 
L 319.92309 375.443384 
L 321.06507 378.38712 
L 322.441254 381.268807 
L 324.048904 384.070058 
L 325.883854 386.772537 
L 327.940504 389.358069 
L 330.211823 391.808753 
L 332.689352 394.107071 
L 335.363227 396.236001 
L 338.2222 398.179129 
L 341.253675 399.920759 
L 344.443755 401.446022 
L 347.777287 402.740981 
L 351.237929 403.792739 
L 354.808216 404.589532 
L 358.469636 405.120831 
L 362.202717 405.377428 
L 365.987122 405.35152 
L 369.801741 405.036792 
L 373.624807 404.428481 
L 377.434003 403.523447 
L 380.268126 402.649 
L 383.071944 401.606801 
L 385.835676 400.397421 
L 388.549506 399.02199 
L 391.203614 397.482208 
L 393.78821 395.780347 
L 396.293567 393.919253 
L 398.71005 391.902347 
L 401.028155 389.733622 
L 403.23854 387.417643 
L 405.332059 384.959537 
L 407.299794 382.364991 
L 409.133091 379.640238 
L 410.823592 376.79205 
L 412.363266 373.82772 
L 413.744445 370.755053 
L 414.959852 367.582341 
L 416.002632 364.318353 
L 416.866384 360.972307 
L 417.54519 357.55385 
L 418.033639 354.073036 
L 418.326857 350.540294 
L 418.420533 346.966405 
L 418.310939 343.362469 
L 417.994956 339.739877 
L 417.470094 336.110277 
L 416.734507 332.485537 
L 415.787019 328.877715 
L 414.627128 325.299019 
L 413.25503 321.761768 
L 411.671621 318.278358 
L 409.878514 314.861217 
L 407.878041 311.522768 
L 405.673257 308.275386 
L 403.267947 305.13136 
L 400.666623 302.102844 
L 397.87452 299.201821 
L 394.897593 296.440057 
L 391.742512 293.829061 
L 388.416648 291.38004 
L 384.928061 289.103857 
L 381.28549 287.010992 
L 377.498329 285.111498 
L 373.576611 283.414961 
L 369.530989 281.930462 
L 365.372703 280.666535 
L 361.113559 279.631133 
L 356.765901 278.831591 
L 352.342574 278.27459 
L 347.856893 277.966122 
L 343.322608 277.911464 
L 338.753865 278.115143 
L 334.165166 278.58091 
L 329.571328 279.311717 
L 324.987436 280.309687 
L 320.428804 281.5761 
L 315.910922 283.111369 
L 311.449413 284.915029 
L 307.059981 286.985718 
L 302.758358 289.321168 
L 298.560259 291.9182 
L 294.481324 294.772714 
L 290.537068 297.879691 
L 286.742828 301.233192 
L 283.113705 304.826361 
L 279.664516 308.651433 
L 276.409737 312.699744 
L 273.363448 316.961746 
L 270.539283 321.427018 
L 267.950376 326.084292 
L 265.609307 330.921472 
L 263.528055 335.92566 
L 261.717945 341.083186 
L 260.189599 346.37964 
L 258.952891 351.799904 
L 258.016903 357.328195 
L 257.389876 362.9481 
L 257.079172 368.642624 
L 257.091236 374.394235 
L 257.431556 380.18491 
L 258.104629 385.996191 
L 258.739967 389.872534 
L 259.525532 393.744 
L 260.461887 397.604865 
L 261.549375 401.449355 
L 262.788125 405.271654 
L 264.178046 409.065913 
L 265.718825 412.826258 
L 267.409921 416.546795 
L 269.250571 420.221626 
L 271.239783 423.844847 
L 273.376335 427.410567 
L 275.658775 430.91291 
L 278.085425 434.346026 
L 280.654371 437.7041 
L 283.363473 440.981361 
L 286.21036 444.17209 
L 289.192432 447.270631 
L 292.306862 450.271396 
L 295.550596 453.168878 
L 298.920358 455.95766 
L 302.412648 458.632421 
L 306.023747 461.187945 
L 309.749722 463.619133 
L 313.586424 465.92101 
L 317.529496 468.088734 
L 321.574376 470.117603 
L 325.7163 472.003065 
L 329.950309 473.740726 
L 334.271252 475.326361 
L 338.673791 476.755916 
L 343.15241 478.02552 
L 347.701416 479.131495 
L 352.314952 480.070357 
L 356.986996 480.83883 
L 361.711373 481.433848 
L 366.481762 481.852565 
L 371.291702 482.09236 
L 376.1346 482.150846 
L 381.003741 482.025873 
L 385.892294 481.715534 
L 390.793323 481.218174 
L 395.699792 480.532392 
L 400.604581 479.657047 
L 405.500487 478.591261 
L 410.380242 477.334428 
L 415.236517 475.886212 
L 420.061934 474.246556 
L 424.849075 472.415679 
L 429.590496 470.394086 
L 434.278734 468.182565 
L 438.906319 465.782193 
L 443.465784 463.194333 
L 447.949678 460.420641 
L 452.350576 457.463061 
L 456.661087 454.323831 
L 460.873873 451.005478 
L 464.981651 447.510823 
L 468.977212 443.842975 
L 472.853427 440.005332 
L 476.603263 436.001581 
L 480.219789 431.835693 
L 483.696194 427.51192 
L 487.02579 423.034797 
L 490.202032 418.409134 
L 493.218523 413.640011 
L 496.069026 408.732779 
L 498.74748 403.69305 
L 501.248003 398.526695 
L 503.564907 393.239836 
L 505.692711 387.838844 
L 507.626145 382.330327 
L 509.360165 376.721125 
L 510.889962 371.018306 
L 512.210972 365.229155 
L 513.318882 359.361163 
L 513.791649 356.4 
L 513.791649 356.4 
" clip-path="url(#p50c204de03)" style="fill: none; stroke: #ffd700; stroke-opacity: 0.6; stroke-width: 1.5; stroke-linecap: square"/>
   </g>
   <g id="line2d_2">
    <path d="M 356.4 154.970362 
L 181.956817 457.114819 
" clip-path="url(#p50c204de03)" style="fill: none; stroke-dasharray: 3.7,1.6; stroke-dashoffset: 0; stroke: #ffd700; stroke-opacity: 0.4"/>
   </g>
   <g id="line2d_3">
    <path d="M 181.956817 457.114819 
L 530.843183 457.114819 
" clip-path="url(#p50c204de03)" style="fill: none; stroke-dasharray: 3.7,1.6; stroke-dashoffset: 0; stroke: #ffd700; stroke-opacity: 0.4"/>
   </g>
   <g id="line2d_4">
    <path d="M 530.843183 457.114819 
L 356.4 154.970362 
" clip-path="url(#p50c204de03)" style="fill: none; stroke-dasharray: 3.7,1.6; stroke-dashoffset: 0; stroke: #ffd700; stroke-opacity: 0.4"/>
   </g>
   <g id="text_1">
    <!-- Vacuum -->
    <g style="fill: #ff6b6b" transform="translate(336.364453 147.340612) scale(0.09 -0.09)">
     <defs>
      <path id="DejaVuSans-Bold-56" d="M 31 4666 
L 1241 4666 
L 2478 1222 
L 3713 4666 
L 4922 4666 
L 3194 0 
L 1759 0 
L 31 4666 
z
" transform="scale(0.015625)"/>
      <path id="DejaVuSans-Bold-61" d="M 2106 1575 
Q 1756 1575 1579 1456 
Q 1403 1338 1403 1106 
Q 1403 894 1545 773 
Q 1688 653 1941 653 
Q 2256 653 2472 879 
Q 2688 1106 2688 1447 
L 2688 1575 
L 2106 1575 
z
M 3816 1997 
L 3816 0 
L 2688 0 
L 2688 519 
Q 2463 200 2181 54 
Q 1900 -91 1497 -91 
Q 953 -91 614 226 
Q 275 544 275 1050 
Q 275 1666 698 1953 
Q 1122 2241 2028 2241 
L 2688 2241 
L 2688 2328 
Q 2688 2594 2478 2717 
Q 2269 2841 1825 2841 
Q 1466 2841 1156 2769 
Q 847 2697 581 2553 
L 581 3406 
Q 941 3494 1303 3539 
Q 1666 3584 2028 3584 
Q 2975 3584 3395 3211 
Q 3816 2838 3816 1997 
z
" transform="scale(0.015625)"/>
      <path id="DejaVuSans-Bold-63" d="M 3366 3391 
L 3366 2478 
Q 3138 2634 2908 2709 
Q 2678 2784 2431 2784 
Q 1963 2784 1702 2511 
Q 1441 2238 1441 1747 
Q 1441 1256 1702 982 
Q 1963 709 2431 709 
Q 2694 709 2930 787 
Q 3166 866 3366 1019 
L 3366 103 
Q 3103 6 2833 -42 
Q 2563 -91 2291 -91 
Q 1344 -91 809 395 
Q 275 881 275 1747 
Q 275 2613 809 3098 
Q 1344 3584 2291 3584 
Q 2566 3584 2833 3536 
Q 3100 3488 3366 3391 
z
" transform="scale(0.015625)"/>
      <path id="DejaVuSans-Bold-75" d="M 500 1363 
L 500 3500 
L 1625 3500 
L 1625 3150 
Q 1625 2866 1622 2436 
Q 1619 2006 1619 1863 
Q 1619 1441 1641 1255 
Q 1663 1069 1716 984 
Q 1784 875 1895 815 
Q 2006 756 2150 756 
Q 2500 756 2700 1025 
Q 2900 1294 2900 1772 
L 2900 3500 
L 4019 3500 
L 4019 0 
L 2900 0 
L 2900 506 
Q 2647 200 2364 54 
Q 2081 -91 1741 -91 
Q 1134 -91 817 281 
Q 500 653 500 1363 
z
" transform="scale(0.015625)"/>
      <path id="DejaVuSans-Bold-6d" d="M 3781 2919 
Q 3994 3244 4286 3414 
Q 4578 3584 4928 3584 
Q 5531 3584 5847 3212 
Q 6163 2841 6163 2131 
L 6163 0 
L 5038 0 
L 5038 1825 
Q 5041 1866 5042 1909 
Q 5044 1953 5044 2034 
Q 5044 2406 4934 2573 
Q 4825 2741 4581 2741 
Q 4263 2741 4089 2478 
Q 3916 2216 3909 1719 
L 3909 0 
L 2784 0 
L 2784 1825 
Q 2784 2406 2684 2573 
Q 2584 2741 2328 2741 
Q 2006 2741 1831 2477 
Q 1656 2213 1656 1722 
L 1656 0 
L 531 0 
L 531 3500 
L 1656 3500 
L 1656 2988 
Q 1863 3284 2130 3434 
Q 2397 3584 2719 3584 
Q 3081 3584 3359 3409 
Q 3638 3234 3781 2919 
z
" transform="scale(0.015625)"/>
     </defs>
     <use xlink:href="#DejaVuSans-Bold-56"/>
     <use xlink:href="#DejaVuSans-Bold-61" transform="translate(71.892578 0)"/>
     <use xlink:href="#DejaVuSans-Bold-63" transform="translate(139.373047 0)"/>
     <use xlink:href="#DejaVuSans-Bold-75" transform="translate(198.650391 0)"/>
     <use xlink:href="#DejaVuSans-Bold-75" transform="translate(269.841797 0)"/>
     <use xlink:href="#DejaVuSans-Bold-6d" transform="translate(341.033203 0)"/>
    </g>
    <!-- Collector -->
    <g style="fill: #ff6b6b" transform="translate(333.738984 157.418644) scale(0.09 -0.09)">
     <defs>
      <path id="DejaVuSans-Bold-43" d="M 4288 256 
Q 3956 84 3597 -3 
Q 3238 -91 2847 -91 
Q 1681 -91 1000 561 
Q 319 1213 319 2328 
Q 319 3447 1000 4098 
Q 1681 4750 2847 4750 
Q 3238 4750 3597 4662 
Q 3956 4575 4288 4403 
L 4288 3438 
Q 3953 3666 3628 3772 
Q 3303 3878 2944 3878 
Q 2300 3878 1931 3465 
Q 1563 3053 1563 2328 
Q 1563 1606 1931 1193 
Q 2300 781 2944 781 
Q 3303 781 3628 887 
Q 3953 994 4288 1222 
L 4288 256 
z
" transform="scale(0.015625)"/>
      <path id="DejaVuSans-Bold-6f" d="M 2203 2784 
Q 1831 2784 1636 2517 
Q 1441 2250 1441 1747 
Q 1441 1244 1636 976 
Q 1831 709 2203 709 
Q 2569 709 2762 976 
Q 2956 1244 2956 1747 
Q 2956 2250 2762 2517 
Q 2569 2784 2203 2784 
z
M 2203 3584 
Q 3106 3584 3614 3096 
Q 4122 2609 4122 1747 
Q 4122 884 3614 396 
Q 3106 -91 2203 -91 
Q 1297 -91 786 396 
Q 275 884 275 1747 
Q 275 2609 786 3096 
Q 1297 3584 2203 3584 
z
" transform="scale(0.015625)"/>
      <path id="DejaVuSans-Bold-6c" d="M 538 4863 
L 1656 4863 
L 1656 0 
L 538 0 
L 538 4863 
z
" transform="scale(0.015625)"/>
      <path id="DejaVuSans-Bold-65" d="M 4031 1759 
L 4031 1441 
L 1416 1441 
Q 1456 1047 1700 850 
Q 1944 653 2381 653 
Q 2734 653 3104 758 
Q 3475 863 3866 1075 
L 3866 213 
Q 3469 63 3072 -14 
Q 2675 -91 2278 -91 
Q 1328 -91 801 392 
Q 275 875 275 1747 
Q 275 2603 792 3093 
Q 1309 3584 2216 3584 
Q 3041 3584 3536 3087 
Q 4031 2591 4031 1759 
z
M 2881 2131 
Q 2881 2450 2695 2645 
Q 2509 2841 2209 2841 
Q 1884 2841 1681 2658 
Q 1478 2475 1428 2131 
L 2881 2131 
z
" transform="scale(0.015625)"/>
      <path id="DejaVuSans-Bold-74" d="M 1759 4494 
L 1759 3500 
L 2913 3500 
L 2913 2700 
L 1759 2700 
L 1759 1216 
Q 1759 972 1856 886 
Q 1953 800 2241 800 
L 2816 800 
L 2816 0 
L 1856 0 
Q 1194 0 917 276 
Q 641 553 641 1216 
L 641 2700 
L 84 2700 
L 84 3500 
L 641 3500 
L 641 4494 
L 1759 4494 
z
" transform="scale(0.015625)"/>
      <path id="DejaVuSans-Bold-72" d="M 3138 2547 
Q 2991 2616 2845 2648 
Q 2700 2681 2553 2681 
Q 2122 2681 1889 2404 
Q 1656 2128 1656 1613 
L 1656 0 
L 538 0 
L 538 3500 
L 1656 3500 
L 1656 2925 
Q 1872 3269 2151 3426 
Q 2431 3584 2822 3584 
Q 2878 3584 2943 3579 
Q 3009 3575 3134 3559 
L 3138 2547 
z
" transform="scale(0.015625)"/>
     </defs>
     <use xlink:href="#DejaVuSans-Bold-43"/>
     <use xlink:href="#DejaVuSans-Bold-6f" transform="translate(73.388672 0)"/>
     <use xlink:href="#DejaVuSans-Bold-6c" transform="translate(142.089844 0)"/>
     <use xlink:href="#DejaVuSans-Bold-6c" transform="translate(176.367188 0)"/>
     <use xlink:href="#DejaVuSans-Bold-65" transform="translate(210.644531 0)"/>
     <use xlink:href="#DejaVuSans-Bold-63" transform="translate(278.466797 0)"/>
     <use xlink:href="#DejaVuSans-Bold-74" transform="translate(337.744141 0)"/>
     <use xlink:href="#DejaVuSans-Bold-6f" transform="translate(385.546875 0)"/>
     <use xlink:href="#DejaVuSans-Bold-72" transform="translate(454.248047 0)"/>
    </g>
    <!-- (Dynamic Void) -->
    <g style="fill: #ff6b6b" transform="translate(317.820937 167.496675) scale(0.09 -0.09)">
     <defs>
      <path id="DejaVuSans-Bold-28" d="M 2413 -844 
L 1484 -844 
Q 1006 -72 778 623 
Q 550 1319 550 2003 
Q 550 2688 779 3389 
Q 1009 4091 1484 4856 
L 2413 4856 
Q 2013 4116 1813 3408 
Q 1613 2700 1613 2009 
Q 1613 1319 1811 609 
Q 2009 -100 2413 -844 
z
" transform="scale(0.015625)"/>
      <path id="DejaVuSans-Bold-44" d="M 1791 3756 
L 1791 909 
L 2222 909 
Q 2959 909 3348 1275 
Q 3738 1641 3738 2338 
Q 3738 3031 3350 3393 
Q 2963 3756 2222 3756 
L 1791 3756 
z
M 588 4666 
L 1856 4666 
Q 2919 4666 3439 4514 
Q 3959 4363 4331 4000 
Q 4659 3684 4818 3271 
Q 4978 2859 4978 2338 
Q 4978 1809 4818 1395 
Q 4659 981 4331 666 
Q 3956 303 3431 151 
Q 2906 0 1856 0 
L 588 0 
L 588 4666 
z
" transform="scale(0.015625)"/>
      <path id="DejaVuSans-Bold-79" d="M 78 3500 
L 1197 3500 
L 2138 1125 
L 2938 3500 
L 4056 3500 
L 2584 -331 
Q 2363 -916 2067 -1148 
Q 1772 -1381 1288 -1381 
L 641 -1381 
L 641 -647 
L 991 -647 
Q 1275 -647 1404 -556 
Q 1534 -466 1606 -231 
L 1638 -134 
L 78 3500 
z
" transform="scale(0.015625)"/>
      <path id="DejaVuSans-Bold-6e" d="M 4056 2131 
L 4056 0 
L 2931 0 
L 2931 347 
L 2931 1631 
Q 2931 2084 2911 2256 
Q 2891 2428 2841 2509 
Q 2775 2619 2662 2680 
Q 2550 2741 2406 2741 
Q 2056 2741 1856 2470 
Q 1656 2200 1656 1722 
L 1656 0 
L 538 0 
L 538 3500 
L 1656 3500 
L 1656 2988 
Q 1909 3294 2193 3439 
Q 2478 3584 2822 3584 
Q 3428 3584 3742 3212 
Q 4056 2841 4056 2131 
z
" transform="scale(0.015625)"/>
      <path id="DejaVuSans-Bold-69" d="M 538 3500 
L 1656 3500 
L 1656 0 
L 538 0 
L 538 3500 
z
M 538 4863 
L 1656 4863 
L 1656 3950 
L 538 3950 
L 538 4863 
z
" transform="scale(0.015625)"/>
      <path id="DejaVuSans-Bold-20" transform="scale(0.015625)"/>
      <path id="DejaVuSans-Bold-64" d="M 2919 2988 
L 2919 4863 
L 4044 4863 
L 4044 0 
L 2919 0 
L 2919 506 
Q 2688 197 2409 53 
Q 2131 -91 1766 -91 
Q 1119 -91 703 423 
Q 288 938 288 1747 
Q 288 2556 703 3070 
Q 1119 3584 1766 3584 
Q 2128 3584 2408 3439 
Q 2688 3294 2919 2988 
z
M 2181 722 
Q 2541 722 2730 984 
Q 2919 1247 2919 1747 
Q 2919 2247 2730 2509 
Q 2541 2772 2181 2772 
Q 1825 2772 1636 2509 
Q 1447 2247 1447 1747 
Q 1447 1247 1636 984 
Q 1825 722 2181 722 
z
" transform="scale(0.015625)"/>
      <path id="DejaVuSans-Bold-29" d="M 513 -844 
Q 913 -100 1113 609 
Q 1313 1319 1313 2009 
Q 1313 2700 1113 3408 
Q 913 4116 513 4856 
L 1441 4856 
Q 1916 4091 2145 3389 
Q 2375 2688 2375 2003 
Q 2375 1319 2147 623 
Q 1919 -72 1441 -844 
L 513 -844 
z
" transform="scale(0.015625)"/>
     </defs>
     <use xlink:href="#DejaVuSans-Bold-28"/>
     <use xlink:href="#DejaVuSans-Bold-44" transform="translate(45.703125 0)"/>
     <use xlink:href="#DejaVuSans-Bold-79" transform="translate(128.710938 0)"/>
     <use xlink:href="#DejaVuSans-Bold-6e" transform="translate(193.896484 0)"/>
     <use xlink:href="#DejaVuSans-Bold-61" transform="translate(265.087891 0)"/>
     <use xlink:href="#DejaVuSans-Bold-6d" transform="translate(332.568359 0)"/>
     <use xlink:href="#DejaVuSans-Bold-69" transform="translate(436.767578 0)"/>
     <use xlink:href="#DejaVuSans-Bold-63" transform="translate(471.044922 0)"/>
     <use xlink:href="#DejaVuSans-Bold-20" transform="translate(530.322266 0)"/>
     <use xlink:href="#DejaVuSans-Bold-56" transform="translate(565.136719 0)"/>
     <use xlink:href="#DejaVuSans-Bold-6f" transform="translate(637.029297 0)"/>
     <use xlink:href="#DejaVuSans-Bold-69" transform="translate(705.730469 0)"/>
     <use xlink:href="#DejaVuSans-Bold-64" transform="translate(740.007812 0)"/>
     <use xlink:href="#DejaVuSans-Bold-29" transform="translate(811.589844 0)"/>
    </g>
   </g>
   <g id="text_2">
    <!-- Maxwell's -->
    <g style="fill: #4b79ff" transform="translate(157.188536 449.520225) scale(0.09 -0.09)">
     <defs>
      <path id="DejaVuSans-Bold-4d" d="M 588 4666 
L 2119 4666 
L 3181 2169 
L 4250 4666 
L 5778 4666 
L 5778 0 
L 4641 0 
L 4641 3413 
L 3566 897 
L 2803 897 
L 1728 3413 
L 1728 0 
L 588 0 
L 588 4666 
z
" transform="scale(0.015625)"/>
      <path id="DejaVuSans-Bold-78" d="M 1422 1791 
L 159 3500 
L 1344 3500 
L 2059 2463 
L 2784 3500 
L 3969 3500 
L 2706 1797 
L 4031 0 
L 2847 0 
L 2059 1106 
L 1281 0 
L 97 0 
L 1422 1791 
z
" transform="scale(0.015625)"/>
      <path id="DejaVuSans-Bold-77" d="M 225 3500 
L 1313 3500 
L 1900 1088 
L 2491 3500 
L 3425 3500 
L 4013 1113 
L 4603 3500 
L 5691 3500 
L 4769 0 
L 3547 0 
L 2956 2406 
L 2369 0 
L 1147 0 
L 225 3500 
z
" transform="scale(0.015625)"/>
      <path id="DejaVuSans-Bold-27" d="M 1350 4666 
L 1350 2931 
L 609 2931 
L 609 4666 
L 1350 4666 
z
" transform="scale(0.015625)"/>
      <path id="DejaVuSans-Bold-73" d="M 3272 3391 
L 3272 2541 
Q 2913 2691 2578 2766 
Q 2244 2841 1947 2841 
Q 1628 2841 1473 2761 
Q 1319 2681 1319 2516 
Q 1319 2381 1436 2309 
Q 1553 2238 1856 2203 
L 2053 2175 
Q 2913 2066 3209 1816 
Q 3506 1566 3506 1031 
Q 3506 472 3093 190 
Q 2681 -91 1863 -91 
Q 1516 -91 1145 -36 
Q 775 19 384 128 
L 384 978 
Q 719 816 1070 734 
Q 1422 653 1784 653 
Q 2113 653 2278 743 
Q 2444 834 2444 1013 
Q 2444 1163 2330 1236 
Q 2216 1309 1875 1350 
L 1678 1375 
Q 931 1469 631 1722 
Q 331 1975 331 2491 
Q 331 3047 712 3315 
Q 1094 3584 1881 3584 
Q 2191 3584 2531 3537 
Q 2872 3491 3272 3391 
z
" transform="scale(0.015625)"/>
     </defs>
     <use xlink:href="#DejaVuSans-Bold-4d"/>
     <use xlink:href="#DejaVuSans-Bold-61" transform="translate(99.511719 0)"/>
     <use xlink:href="#DejaVuSans-Bold-78" transform="translate(166.992188 0)"/>
     <use xlink:href="#DejaVuSans-Bold-77" transform="translate(231.494141 0)"/>
     <use xlink:href="#DejaVuSans-Bold-65" transform="translate(323.876953 0)"/>
     <use xlink:href="#DejaVuSans-Bold-6c" transform="translate(391.699219 0)"/>
     <use xlink:href="#DejaVuSans-Bold-6c" transform="translate(425.976562 0)"/>
     <use xlink:href="#DejaVuSans-Bold-27" transform="translate(460.253906 0)"/>
     <use xlink:href="#DejaVuSans-Bold-73" transform="translate(490.869141 0)"/>
    </g>
    <!-- Bodhisattva -->
    <g style="fill: #4b79ff" transform="translate(151.48127 459.598256) scale(0.09 -0.09)">
     <defs>
      <path id="DejaVuSans-Bold-42" d="M 2456 2859 
Q 2741 2859 2887 2984 
Q 3034 3109 3034 3353 
Q 3034 3594 2887 3720 
Q 2741 3847 2456 3847 
L 1791 3847 
L 1791 2859 
L 2456 2859 
z
M 2497 819 
Q 2859 819 3042 972 
Q 3225 1125 3225 1434 
Q 3225 1738 3044 1889 
Q 2863 2041 2497 2041 
L 1791 2041 
L 1791 819 
L 2497 819 
z
M 3616 2497 
Q 4003 2384 4215 2081 
Q 4428 1778 4428 1338 
Q 4428 663 3972 331 
Q 3516 0 2584 0 
L 588 0 
L 588 4666 
L 2394 4666 
Q 3366 4666 3802 4372 
Q 4238 4078 4238 3431 
Q 4238 3091 4078 2852 
Q 3919 2613 3616 2497 
z
" transform="scale(0.015625)"/>
      <path id="DejaVuSans-Bold-68" d="M 4056 2131 
L 4056 0 
L 2931 0 
L 2931 347 
L 2931 1625 
Q 2931 2084 2911 2256 
Q 2891 2428 2841 2509 
Q 2775 2619 2662 2680 
Q 2550 2741 2406 2741 
Q 2056 2741 1856 2470 
Q 1656 2200 1656 1722 
L 1656 0 
L 538 0 
L 538 4863 
L 1656 4863 
L 1656 2988 
Q 1909 3294 2193 3439 
Q 2478 3584 2822 3584 
Q 3428 3584 3742 3212 
Q 4056 2841 4056 2131 
z
" transform="scale(0.015625)"/>
      <path id="DejaVuSans-Bold-76" d="M 97 3500 
L 1216 3500 
L 2088 1081 
L 2956 3500 
L 4078 3500 
L 2700 0 
L 1472 0 
L 97 3500 
z
" transform="scale(0.015625)"/>
     </defs>
     <use xlink:href="#DejaVuSans-Bold-42"/>
     <use xlink:href="#DejaVuSans-Bold-6f" transform="translate(76.220703 0)"/>
     <use xlink:href="#DejaVuSans-Bold-64" transform="translate(144.921875 0)"/>
     <use xlink:href="#DejaVuSans-Bold-68" transform="translate(216.503906 0)"/>
     <use xlink:href="#DejaVuSans-Bold-69" transform="translate(287.695312 0)"/>
     <use xlink:href="#DejaVuSans-Bold-73" transform="translate(321.972656 0)"/>
     <use xlink:href="#DejaVuSans-Bold-61" transform="translate(381.494141 0)"/>
     <use xlink:href="#DejaVuSans-Bold-74" transform="translate(448.974609 0)"/>
     <use xlink:href="#DejaVuSans-Bold-74" transform="translate(496.777344 0)"/>
     <use xlink:href="#DejaVuSans-Bold-76" transform="translate(544.580078 0)"/>
     <use xlink:href="#DejaVuSans-Bold-61" transform="translate(609.765625 0)"/>
    </g>
    <!-- Processor -->
    <g style="fill: #4b79ff" transform="translate(156.960723 469.676288) scale(0.09 -0.09)">
     <defs>
      <path id="DejaVuSans-Bold-50" d="M 588 4666 
L 2584 4666 
Q 3475 4666 3951 4270 
Q 4428 3875 4428 3144 
Q 4428 2409 3951 2014 
Q 3475 1619 2584 1619 
L 1791 1619 
L 1791 0 
L 588 0 
L 588 4666 
z
M 1791 3794 
L 1791 2491 
L 2456 2491 
Q 2806 2491 2997 2661 
Q 3188 2831 3188 3144 
Q 3188 3456 2997 3625 
Q 2806 3794 2456 3794 
L 1791 3794 
z
" transform="scale(0.015625)"/>
     </defs>
     <use xlink:href="#DejaVuSans-Bold-50"/>
     <use xlink:href="#DejaVuSans-Bold-72" transform="translate(73.291016 0)"/>
     <use xlink:href="#DejaVuSans-Bold-6f" transform="translate(122.607422 0)"/>
     <use xlink:href="#DejaVuSans-Bold-63" transform="translate(191.308594 0)"/>
     <use xlink:href="#DejaVuSans-Bold-65" transform="translate(250.585938 0)"/>
     <use xlink:href="#DejaVuSans-Bold-73" transform="translate(318.408203 0)"/>
     <use xlink:href="#DejaVuSans-Bold-73" transform="translate(377.929688 0)"/>
     <use xlink:href="#DejaVuSans-Bold-6f" transform="translate(437.451172 0)"/>
     <use xlink:href="#DejaVuSans-Bold-72" transform="translate(506.152344 0)"/>
    </g>
   </g>
   <g id="text_3">
    <!-- Human -->
    <g style="fill: #6bff9e" transform="translate(512.944433 449.485069) scale(0.09 -0.09)">
     <defs>
      <path id="DejaVuSans-Bold-48" d="M 588 4666 
L 1791 4666 
L 1791 2888 
L 3566 2888 
L 3566 4666 
L 4769 4666 
L 4769 0 
L 3566 0 
L 3566 1978 
L 1791 1978 
L 1791 0 
L 588 0 
L 588 4666 
z
" transform="scale(0.015625)"/>
     </defs>
     <use xlink:href="#DejaVuSans-Bold-48"/>
     <use xlink:href="#DejaVuSans-Bold-75" transform="translate(83.691406 0)"/>
     <use xlink:href="#DejaVuSans-Bold-6d" transform="translate(154.882812 0)"/>
     <use xlink:href="#DejaVuSans-Bold-61" transform="translate(259.082031 0)"/>
     <use xlink:href="#DejaVuSans-Bold-6e" transform="translate(326.5625 0)"/>
    </g>
    <!-- Interface -->
    <g style="fill: #6bff9e" transform="translate(507.829199 459.5631) scale(0.09 -0.09)">
     <defs>
      <path id="DejaVuSans-Bold-49" d="M 588 4666 
L 1791 4666 
L 1791 0 
L 588 0 
L 588 4666 
z
" transform="scale(0.015625)"/>
      <path id="DejaVuSans-Bold-66" d="M 2841 4863 
L 2841 4128 
L 2222 4128 
Q 1984 4128 1890 4042 
Q 1797 3956 1797 3744 
L 1797 3500 
L 2753 3500 
L 2753 2700 
L 1797 2700 
L 1797 0 
L 678 0 
L 678 2700 
L 122 2700 
L 122 3500 
L 678 3500 
L 678 3744 
Q 678 4316 997 4589 
Q 1316 4863 1984 4863 
L 2841 4863 
z
" transform="scale(0.015625)"/>
     </defs>
     <use xlink:href="#DejaVuSans-Bold-49"/>
     <use xlink:href="#DejaVuSans-Bold-6e" transform="translate(37.207031 0)"/>
     <use xlink:href="#DejaVuSans-Bold-74" transform="translate(108.398438 0)"/>
     <use xlink:href="#DejaVuSans-Bold-65" transform="translate(156.201172 0)"/>
     <use xlink:href="#DejaVuSans-Bold-72" transform="translate(224.023438 0)"/>
     <use xlink:href="#DejaVuSans-Bold-66" transform="translate(273.339844 0)"/>
     <use xlink:href="#DejaVuSans-Bold-61" transform="translate(316.845703 0)"/>
     <use xlink:href="#DejaVuSans-Bold-63" transform="translate(384.326172 0)"/>
     <use xlink:href="#DejaVuSans-Bold-65" transform="translate(443.603516 0)"/>
    </g>
    <!-- (Prayer Port) -->
    <g style="fill: #6bff9e" transform="translate(497.785058 469.641131) scale(0.09 -0.09)">
     <use xlink:href="#DejaVuSans-Bold-28"/>
     <use xlink:href="#DejaVuSans-Bold-50" transform="translate(45.703125 0)"/>
     <use xlink:href="#DejaVuSans-Bold-72" transform="translate(118.994141 0)"/>
     <use xlink:href="#DejaVuSans-Bold-61" transform="translate(168.310547 0)"/>
     <use xlink:href="#DejaVuSans-Bold-79" transform="translate(232.666016 0)"/>
     <use xlink:href="#DejaVuSans-Bold-65" transform="translate(297.851562 0)"/>
     <use xlink:href="#DejaVuSans-Bold-72" transform="translate(365.673828 0)"/>
     <use xlink:href="#DejaVuSans-Bold-20" transform="translate(414.990234 0)"/>
     <use xlink:href="#DejaVuSans-Bold-50" transform="translate(449.804688 0)"/>
     <use xlink:href="#DejaVuSans-Bold-6f" transform="translate(523.095703 0)"/>
     <use xlink:href="#DejaVuSans-Bold-72" transform="translate(591.796875 0)"/>
     <use xlink:href="#DejaVuSans-Bold-74" transform="translate(641.113281 0)"/>
     <use xlink:href="#DejaVuSans-Bold-29" transform="translate(688.916016 0)"/>
    </g>
   </g>
   <g id="text_4">
    <g id="patch_6">
     <path d="M 325.04 370.5425 
L 387.76 370.5425 
Q 394.16 370.5425 394.16 364.1425 
L 394.16 348.6575 
Q 394.16 342.2575 387.76 342.2575 
L 325.04 342.2575 
Q 318.64 342.2575 318.64 348.6575 
L 318.64 364.1425 
Q 318.64 370.5425 325.04 370.5425 
z
" style="fill: #1a1a3a; stroke: #ffd700; stroke-width: 1.5; stroke-linejoin: miter"/>
    </g>
    <!-- $c \otimes u \rightarrow i$ -->
    <g style="fill: #ffffff" transform="translate(325.04 360.815) scale(0.16 -0.16)">
     <defs>
      <path id="DejaVuSans-Oblique-63" d="M 3431 3366 
L 3316 2797 
Q 3109 2947 2876 3022 
Q 2644 3097 2394 3097 
Q 2119 3097 1870 3000 
Q 1622 2903 1453 2725 
Q 1184 2453 1037 2087 
Q 891 1722 891 1331 
Q 891 859 1127 628 
Q 1363 397 1844 397 
Q 2081 397 2348 469 
Q 2616 541 2906 684 
L 2797 116 
Q 2547 13 2283 -39 
Q 2019 -91 1741 -91 
Q 1044 -91 669 257 
Q 294 606 294 1253 
Q 294 1797 489 2255 
Q 684 2713 1069 3078 
Q 1331 3328 1684 3456 
Q 2038 3584 2456 3584 
Q 2700 3584 2940 3529 
Q 3181 3475 3431 3366 
z
" transform="scale(0.015625)"/>
      <path id="DejaVuSans-2297" d="M 3306 3522 
Q 3016 3644 2681 3644 
Q 2347 3644 2056 3522 
Q 1769 3400 1531 3163 
Q 1291 2922 1172 2634 
Q 1053 2347 1053 2006 
Q 1053 1675 1172 1387 
Q 1291 1100 1531 859 
Q 1769 622 2056 500 
Q 2347 378 2681 378 
Q 3016 378 3306 500 
Q 3594 622 3831 859 
Q 4072 1100 4190 1387 
Q 4309 1675 4309 2006 
Q 4309 2347 4190 2634 
Q 4072 2922 3831 3163 
Q 3594 3400 3306 3522 
z
M 1878 3956 
Q 2250 4113 2681 4113 
Q 3113 4113 3484 3956 
Q 3856 3800 4163 3494 
Q 4472 3184 4625 2813 
Q 4778 2444 4778 2006 
Q 4778 1578 4625 1206 
Q 4472 838 4163 528 
Q 3856 222 3484 65 
Q 3113 -91 2681 -91 
Q 2250 -91 1878 65 
Q 1506 222 1200 528 
Q 891 838 738 1206 
Q 584 1578 584 2006 
Q 584 2444 738 2813 
Q 891 3184 1200 3494 
Q 1506 3800 1878 3956 
z
M 3847 2794 
L 3056 2006 
L 3844 1219 
L 3469 844 
L 2681 1631 
L 1894 841 
L 1516 1219 
L 2306 2006 
L 1519 2794 
L 1894 3169 
L 2681 2381 
L 3469 3172 
L 3847 2794 
z
" transform="scale(0.015625)"/>
      <path id="DejaVuSans-Oblique-75" d="M 428 1388 
L 838 3500 
L 1416 3500 
L 1006 1409 
Q 975 1256 961 1147 
Q 947 1038 947 966 
Q 947 700 1109 554 
Q 1272 409 1569 409 
Q 2031 409 2368 721 
Q 2706 1034 2809 1563 
L 3194 3500 
L 3769 3500 
L 3091 0 
L 2516 0 
L 2631 550 
Q 2388 244 2052 76 
Q 1716 -91 1338 -91 
Q 878 -91 622 161 
Q 366 413 366 863 
Q 366 956 381 1097 
Q 397 1238 428 1388 
z
" transform="scale(0.015625)"/>
      <path id="DejaVuSans-2192" d="M 5050 2147 
L 5050 1866 
L 3822 638 
L 3447 1013 
L 4175 1741 
L 366 1741 
L 366 2272 
L 4175 2272 
L 3447 3000 
L 3822 3375 
L 5050 2147 
z
" transform="scale(0.015625)"/>
      <path id="DejaVuSans-Oblique-69" d="M 1172 4863 
L 1747 4863 
L 1606 4134 
L 1031 4134 
L 1172 4863 
z
M 909 3500 
L 1484 3500 
L 800 0 
L 225 0 
L 909 3500 
z
" transform="scale(0.015625)"/>
     </defs>
     <use xlink:href="#DejaVuSans-Oblique-63" transform="translate(0 0.015625)"/>
     <use xlink:href="#DejaVuSans-2297" transform="translate(74.462891 0.015625)"/>
     <use xlink:href="#DejaVuSans-Oblique-75" transform="translate(177.734375 0.015625)"/>
     <use xlink:href="#DejaVuSans-2192" transform="translate(260.595703 0.015625)"/>
     <use xlink:href="#DejaVuSans-Oblique-69" transform="translate(363.867188 0.015625)"/>
    </g>
   </g>
   <g id="text_5">
    <!-- Trinitarian Engine — Golden Ratio Mandala Schematic -->
    <g style="fill: #aaaacc" transform="translate(221.229687 661.799375) scale(0.1 -0.1)">
     <defs>
      <path id="DejaVuSans-Oblique-54" d="M 378 4666 
L 4325 4666 
L 4225 4134 
L 2559 4134 
L 1759 0 
L 1125 0 
L 1925 4134 
L 275 4134 
L 378 4666 
z
" transform="scale(0.015625)"/>
      <path id="DejaVuSans-Oblique-72" d="M 2853 2969 
Q 2766 3016 2653 3041 
Q 2541 3066 2413 3066 
Q 1953 3066 1609 2717 
Q 1266 2369 1153 1784 
L 800 0 
L 225 0 
L 909 3500 
L 1484 3500 
L 1375 2956 
Q 1603 3259 1920 3421 
Q 2238 3584 2597 3584 
Q 2691 3584 2781 3573 
Q 2872 3563 2963 3538 
L 2853 2969 
z
" transform="scale(0.015625)"/>
      <path id="DejaVuSans-Oblique-6e" d="M 3566 2113 
L 3156 0 
L 2578 0 
L 2988 2091 
Q 3016 2238 3031 2350 
Q 3047 2463 3047 2528 
Q 3047 2791 2881 2937 
Q 2716 3084 2419 3084 
Q 1956 3084 1622 2776 
Q 1288 2469 1184 1941 
L 800 0 
L 225 0 
L 903 3500 
L 1478 3500 
L 1363 2950 
Q 1603 3253 1940 3418 
Q 2278 3584 2650 3584 
Q 3113 3584 3367 3334 
Q 3622 3084 3622 2631 
Q 3622 2519 3608 2391 
Q 3594 2263 3566 2113 
z
" transform="scale(0.015625)"/>
      <path id="DejaVuSans-Oblique-74" d="M 2706 3500 
L 2619 3053 
L 1472 3053 
L 1100 1153 
Q 1081 1047 1072 975 
Q 1063 903 1063 863 
Q 1063 663 1183 572 
Q 1303 481 1569 481 
L 2150 481 
L 2053 0 
L 1503 0 
Q 991 0 739 200 
Q 488 400 488 806 
Q 488 878 497 964 
Q 506 1050 525 1153 
L 897 3053 
L 409 3053 
L 500 3500 
L 978 3500 
L 1172 4494 
L 1747 4494 
L 1556 3500 
L 2706 3500 
z
" transform="scale(0.015625)"/>
      <path id="DejaVuSans-Oblique-61" d="M 3438 1997 
L 3047 0 
L 2472 0 
L 2578 531 
Q 2325 219 2001 64 
Q 1678 -91 1281 -91 
Q 834 -91 548 182 
Q 263 456 263 884 
Q 263 1497 752 1853 
Q 1241 2209 2100 2209 
L 2900 2209 
L 2931 2363 
Q 2938 2388 2941 2417 
Q 2944 2447 2944 2509 
Q 2944 2788 2717 2942 
Q 2491 3097 2081 3097 
Q 1800 3097 1504 3025 
Q 1209 2953 897 2809 
L 997 3341 
Q 1322 3463 1633 3523 
Q 1944 3584 2234 3584 
Q 2853 3584 3176 3315 
Q 3500 3047 3500 2534 
Q 3500 2431 3484 2292 
Q 3469 2153 3438 1997 
z
M 2816 1759 
L 2241 1759 
Q 1534 1759 1195 1570 
Q 856 1381 856 984 
Q 856 709 1029 553 
Q 1203 397 1509 397 
Q 1978 397 2328 733 
Q 2678 1069 2791 1631 
L 2816 1759 
z
" transform="scale(0.015625)"/>
      <path id="DejaVuSans-Oblique-20" transform="scale(0.015625)"/>
      <path id="DejaVuSans-Oblique-45" d="M 1081 4666 
L 4031 4666 
L 3928 4134 
L 1606 4134 
L 1338 2753 
L 3566 2753 
L 3463 2222 
L 1234 2222 
L 909 531 
L 3284 531 
L 3181 0 
L 172 0 
L 1081 4666 
z
" transform="scale(0.015625)"/>
      <path id="DejaVuSans-Oblique-67" d="M 3816 3500 
L 3219 434 
Q 3047 -456 2561 -893 
Q 2075 -1331 1253 -1331 
Q 950 -1331 690 -1286 
Q 431 -1241 206 -1147 
L 313 -588 
Q 525 -725 762 -790 
Q 1000 -856 1269 -856 
Q 1816 -856 2167 -557 
Q 2519 -259 2631 300 
L 2681 563 
Q 2441 288 2122 144 
Q 1803 0 1434 0 
Q 903 0 598 351 
Q 294 703 294 1319 
Q 294 1803 478 2267 
Q 663 2731 997 3091 
Q 1219 3328 1514 3456 
Q 1809 3584 2131 3584 
Q 2484 3584 2746 3420 
Q 3009 3256 3138 2956 
L 3238 3500 
L 3816 3500 
z
M 2950 2216 
Q 2950 2641 2750 2872 
Q 2550 3103 2181 3103 
Q 1953 3103 1747 3012 
Q 1541 2922 1394 2759 
Q 1156 2491 1023 2127 
Q 891 1763 891 1375 
Q 891 944 1092 712 
Q 1294 481 1672 481 
Q 2219 481 2584 976 
Q 2950 1472 2950 2216 
z
" transform="scale(0.015625)"/>
      <path id="DejaVuSans-Oblique-65" d="M 3078 2063 
Q 3088 2113 3092 2166 
Q 3097 2219 3097 2272 
Q 3097 2653 2873 2875 
Q 2650 3097 2266 3097 
Q 1838 3097 1509 2826 
Q 1181 2556 1013 2059 
L 3078 2063 
z
M 3578 1613 
L 903 1613 
Q 884 1494 878 1425 
Q 872 1356 872 1306 
Q 872 872 1139 634 
Q 1406 397 1894 397 
Q 2269 397 2603 481 
Q 2938 566 3225 728 
L 3116 159 
Q 2806 34 2476 -28 
Q 2147 -91 1806 -91 
Q 1078 -91 686 257 
Q 294 606 294 1247 
Q 294 1794 489 2264 
Q 684 2734 1063 3103 
Q 1306 3334 1642 3459 
Q 1978 3584 2356 3584 
Q 2950 3584 3301 3228 
Q 3653 2872 3653 2272 
Q 3653 2128 3634 1964 
Q 3616 1800 3578 1613 
z
" transform="scale(0.015625)"/>
      <path id="DejaVuSans-Oblique-2014" d="M 356 1978 
L 6131 1978 
L 6044 1528 
L 269 1528 
L 356 1978 
z
" transform="scale(0.015625)"/>
      <path id="DejaVuSans-Oblique-47" d="M 3494 697 
L 3738 1919 
L 2700 1919 
L 2797 2438 
L 4453 2438 
L 4050 384 
Q 3634 156 3143 32 
Q 2653 -91 2156 -91 
Q 1278 -91 783 396 
Q 288 884 288 1753 
Q 288 2475 589 3126 
Q 891 3778 1422 4213 
Q 1756 4484 2153 4617 
Q 2550 4750 3034 4750 
Q 3472 4750 3873 4639 
Q 4275 4528 4641 4306 
L 4513 3634 
Q 4231 3928 3853 4083 
Q 3475 4238 3047 4238 
Q 2550 4238 2172 4048 
Q 1794 3859 1497 3463 
Q 1244 3125 1098 2667 
Q 953 2209 953 1734 
Q 953 1081 1287 751 
Q 1622 422 2284 422 
Q 2616 422 2925 492 
Q 3234 563 3494 697 
z
" transform="scale(0.015625)"/>
      <path id="DejaVuSans-Oblique-6f" d="M 1625 -91 
Q 1009 -91 651 289 
Q 294 669 294 1325 
Q 294 1706 417 2101 
Q 541 2497 738 2766 
Q 1047 3184 1428 3384 
Q 1809 3584 2291 3584 
Q 2888 3584 3255 3212 
Q 3622 2841 3622 2241 
Q 3622 1825 3500 1412 
Q 3378 1000 3181 728 
Q 2875 309 2494 109 
Q 2113 -91 1625 -91 
z
M 891 1344 
Q 891 869 1089 633 
Q 1288 397 1691 397 
Q 2269 397 2648 901 
Q 3028 1406 3028 2181 
Q 3028 2634 2825 2865 
Q 2622 3097 2228 3097 
Q 1903 3097 1650 2945 
Q 1397 2794 1197 2484 
Q 1050 2253 970 1956 
Q 891 1659 891 1344 
z
" transform="scale(0.015625)"/>
      <path id="DejaVuSans-Oblique-6c" d="M 1172 4863 
L 1747 4863 
L 800 0 
L 225 0 
L 1172 4863 
z
" transform="scale(0.015625)"/>
      <path id="DejaVuSans-Oblique-64" d="M 2675 525 
Q 2444 222 2128 65 
Q 1813 -91 1428 -91 
Q 903 -91 598 267 
Q 294 625 294 1247 
Q 294 1766 478 2236 
Q 663 2706 1013 3078 
Q 1244 3325 1534 3454 
Q 1825 3584 2144 3584 
Q 2481 3584 2739 3421 
Q 2997 3259 3138 2956 
L 3513 4863 
L 4091 4863 
L 3144 0 
L 2566 0 
L 2675 525 
z
M 891 1350 
Q 891 897 1095 644 
Q 1300 391 1663 391 
Q 1931 391 2161 520 
Q 2391 650 2566 903 
Q 2750 1166 2856 1509 
Q 2963 1853 2963 2188 
Q 2963 2622 2758 2865 
Q 2553 3109 2194 3109 
Q 1922 3109 1687 2981 
Q 1453 2853 1288 2613 
Q 1106 2353 998 2009 
Q 891 1666 891 1350 
z
" transform="scale(0.015625)"/>
      <path id="DejaVuSans-Oblique-52" d="M 1613 4147 
L 1294 2491 
L 2106 2491 
Q 2584 2491 2879 2755 
Q 3175 3019 3175 3444 
Q 3175 3784 2976 3965 
Q 2778 4147 2406 4147 
L 1613 4147 
z
M 2772 2241 
Q 2972 2194 3105 2009 
Q 3238 1825 3413 1275 
L 3809 0 
L 3144 0 
L 2778 1197 
Q 2638 1659 2453 1815 
Q 2269 1972 1888 1972 
L 1191 1972 
L 806 0 
L 172 0 
L 1081 4666 
L 2503 4666 
Q 3150 4666 3495 4373 
Q 3841 4081 3841 3531 
Q 3841 3044 3547 2687 
Q 3253 2331 2772 2241 
z
" transform="scale(0.015625)"/>
      <path id="DejaVuSans-Oblique-4d" d="M 1081 4666 
L 2028 4666 
L 2572 1522 
L 4378 4666 
L 5350 4666 
L 4441 0 
L 3828 0 
L 4622 4091 
L 2791 897 
L 2175 897 
L 1581 4103 
L 788 0 
L 172 0 
L 1081 4666 
z
" transform="scale(0.015625)"/>
      <path id="DejaVuSans-Oblique-53" d="M 3859 4513 
L 3738 3897 
Q 3422 4066 3111 4152 
Q 2800 4238 2509 4238 
Q 1944 4238 1609 3991 
Q 1275 3744 1275 3334 
Q 1275 3109 1398 2989 
Q 1522 2869 2034 2731 
L 2413 2638 
Q 3053 2472 3303 2217 
Q 3553 1963 3553 1503 
Q 3553 797 2998 353 
Q 2444 -91 1538 -91 
Q 1166 -91 791 -17 
Q 416 56 38 206 
L 166 856 
Q 513 641 861 531 
Q 1209 422 1556 422 
Q 2147 422 2503 684 
Q 2859 947 2859 1369 
Q 2859 1650 2717 1795 
Q 2575 1941 2106 2059 
L 1728 2156 
Q 1081 2325 845 2545 
Q 609 2766 609 3163 
Q 609 3859 1145 4304 
Q 1681 4750 2541 4750 
Q 2875 4750 3203 4690 
Q 3531 4631 3859 4513 
z
" transform="scale(0.015625)"/>
      <path id="DejaVuSans-Oblique-68" d="M 3566 2113 
L 3156 0 
L 2578 0 
L 2988 2091 
Q 3016 2238 3031 2350 
Q 3047 2463 3047 2528 
Q 3047 2791 2881 2937 
Q 2716 3084 2419 3084 
Q 1956 3084 1617 2771 
Q 1278 2459 1178 1941 
L 800 0 
L 225 0 
L 1172 4863 
L 1747 4863 
L 1375 2950 
Q 1594 3244 1934 3414 
Q 2275 3584 2650 3584 
Q 3113 3584 3367 3334 
Q 3622 3084 3622 2631 
Q 3622 2519 3608 2391 
Q 3594 2263 3566 2113 
z
" transform="scale(0.015625)"/>
      <path id="DejaVuSans-Oblique-6d" d="M 5747 2113 
L 5338 0 
L 4763 0 
L 5166 2094 
Q 5191 2228 5203 2325 
Q 5216 2422 5216 2491 
Q 5216 2772 5059 2928 
Q 4903 3084 4622 3084 
Q 4203 3084 3875 2770 
Q 3547 2456 3450 1953 
L 3066 0 
L 2491 0 
L 2900 2094 
Q 2925 2209 2937 2307 
Q 2950 2406 2950 2484 
Q 2950 2769 2794 2926 
Q 2638 3084 2363 3084 
Q 1938 3084 1609 2770 
Q 1281 2456 1184 1953 
L 800 0 
L 225 0 
L 909 3500 
L 1484 3500 
L 1375 2956 
Q 1609 3263 1923 3423 
Q 2238 3584 2597 3584 
Q 2978 3584 3223 3384 
Q 3469 3184 3519 2828 
Q 3781 3197 4126 3390 
Q 4472 3584 4856 3584 
Q 5306 3584 5551 3325 
Q 5797 3066 5797 2591 
Q 5797 2488 5784 2364 
Q 5772 2241 5747 2113 
z
" transform="scale(0.015625)"/>
     </defs>
     <use xlink:href="#DejaVuSans-Oblique-54"/>
     <use xlink:href="#DejaVuSans-Oblique-72" transform="translate(53.333984 0)"/>
     <use xlink:href="#DejaVuSans-Oblique-69" transform="translate(94.447266 0)"/>
     <use xlink:href="#DejaVuSans-Oblique-6e" transform="translate(122.230469 0)"/>
     <use xlink:href="#DejaVuSans-Oblique-69" transform="translate(185.609375 0)"/>
     <use xlink:href="#DejaVuSans-Oblique-74" transform="translate(213.392578 0)"/>
     <use xlink:href="#DejaVuSans-Oblique-61" transform="translate(252.601562 0)"/>
     <use xlink:href="#DejaVuSans-Oblique-72" transform="translate(313.880859 0)"/>
     <use xlink:href="#DejaVuSans-Oblique-69" transform="translate(354.994141 0)"/>
     <use xlink:href="#DejaVuSans-Oblique-61" transform="translate(382.777344 0)"/>
     <use xlink:href="#DejaVuSans-Oblique-6e" transform="translate(444.056641 0)"/>
     <use xlink:href="#DejaVuSans-Oblique-20" transform="translate(507.435547 0)"/>
     <use xlink:href="#DejaVuSans-Oblique-45" transform="translate(539.222656 0)"/>
     <use xlink:href="#DejaVuSans-Oblique-6e" transform="translate(602.40625 0)"/>
     <use xlink:href="#DejaVuSans-Oblique-67" transform="translate(665.785156 0)"/>
     <use xlink:href="#DejaVuSans-Oblique-69" transform="translate(729.261719 0)"/>
     <use xlink:href="#DejaVuSans-Oblique-6e" transform="translate(757.044922 0)"/>
     <use xlink:href="#DejaVuSans-Oblique-65" transform="translate(820.423828 0)"/>
     <use xlink:href="#DejaVuSans-Oblique-20" transform="translate(881.947266 0)"/>
     <use xlink:href="#DejaVuSans-Oblique-2014" transform="translate(913.734375 0)"/>
     <use xlink:href="#DejaVuSans-Oblique-20" transform="translate(1013.734375 0)"/>
     <use xlink:href="#DejaVuSans-Oblique-47" transform="translate(1045.521484 0)"/>
     <use xlink:href="#DejaVuSans-Oblique-6f" transform="translate(1123.011719 0)"/>
     <use xlink:href="#DejaVuSans-Oblique-6c" transform="translate(1184.193359 0)"/>
     <use xlink:href="#DejaVuSans-Oblique-64" transform="translate(1211.976562 0)"/>
     <use xlink:href="#DejaVuSans-Oblique-65" transform="translate(1275.453125 0)"/>
     <use xlink:href="#DejaVuSans-Oblique-6e" transform="translate(1336.976562 0)"/>
     <use xlink:href="#DejaVuSans-Oblique-20" transform="translate(1400.355469 0)"/>
     <use xlink:href="#DejaVuSans-Oblique-52" transform="translate(1432.142578 0)"/>
     <use xlink:href="#DejaVuSans-Oblique-61" transform="translate(1501.625 0)"/>
     <use xlink:href="#DejaVuSans-Oblique-74" transform="translate(1562.904297 0)"/>
     <use xlink:href="#DejaVuSans-Oblique-69" transform="translate(1602.113281 0)"/>
     <use xlink:href="#DejaVuSans-Oblique-6f" transform="translate(1629.896484 0)"/>
     <use xlink:href="#DejaVuSans-Oblique-20" transform="translate(1691.078125 0)"/>
     <use xlink:href="#DejaVuSans-Oblique-4d" transform="translate(1722.865234 0)"/>
     <use xlink:href="#DejaVuSans-Oblique-61" transform="translate(1809.144531 0)"/>
     <use xlink:href="#DejaVuSans-Oblique-6e" transform="translate(1870.423828 0)"/>
     <use xlink:href="#DejaVuSans-Oblique-64" transform="translate(1933.802734 0)"/>
     <use xlink:href="#DejaVuSans-Oblique-61" transform="translate(1997.279297 0)"/>
     <use xlink:href="#DejaVuSans-Oblique-6c" transform="translate(2058.558594 0)"/>
     <use xlink:href="#DejaVuSans-Oblique-61" transform="translate(2086.341797 0)"/>
     <use xlink:href="#DejaVuSans-Oblique-20" transform="translate(2147.621094 0)"/>
     <use xlink:href="#DejaVuSans-Oblique-53" transform="translate(2179.408203 0)"/>
     <use xlink:href="#DejaVuSans-Oblique-63" transform="translate(2242.884766 0)"/>
     <use xlink:href="#DejaVuSans-Oblique-68" transform="translate(2297.865234 0)"/>
     <use xlink:href="#DejaVuSans-Oblique-65" transform="translate(2361.244141 0)"/>
     <use xlink:href="#DejaVuSans-Oblique-6d" transform="translate(2422.767578 0)"/>
     <use xlink:href="#DejaVuSans-Oblique-61" transform="translate(2520.179688 0)"/>
     <use xlink:href="#DejaVuSans-Oblique-74" transform="translate(2581.458984 0)"/>
     <use xlink:href="#DejaVuSans-Oblique-69" transform="translate(2620.667969 0)"/>
     <use xlink:href="#DejaVuSans-Oblique-63" transform="translate(2648.451172 0)"/>
    </g>
   </g>
  </g>
 </g>
 <defs>
  <clipPath id="p50c204de03">
   <rect x="7.2" y="7.2" width="698.4" height="698.4"/>
  </clipPath>
 </defs>
</svg>
